<?xml version="1.0" encoding="UTF-8"?><svg id="Camada_2" xmlns="http://www.w3.org/2000/svg" viewBox="0 0 105.26 110.17"><defs><style>.cls-1{fill:#621905;}</style></defs><g id="Camada_2-2"><g><path class="cls-1" d="M83.54,7.11c-3.4,2.73-6.42,5.72-9.94,7.89-16,9.9-26.67,8.18-26.19,42.83,.09,6.62-1.95,13.28-4.14,19.5q-3.95,11.18-23.11,23.11c-1.88,1.17-5.66,.26-7.62-1.06C2.68,92.74-1.19,82.64,.31,71.41,4.64,39.1,22.27,16.13,51.85,2.75c11.09-5.01,22.6-2.94,31.69,4.36Z"/><path class="cls-1" d="M24.83,106.62c5.02-2.93,8.52-4.85,11.89-6.97,12.7-8.02,20.18-9.16,19.07-34.62-.38-24.93,2.52-44.52,33.72-51.78,1.41-.9,5.51,.33,6.94,1.88,8.87,9.59,10.2,21.52,7.68,33.5-5.78,27.48-21.67,47.25-47.67,58.33-9.49,4.04-19.37,4.66-31.63-.34Z"/></g></g></svg>