<?xml version="1.0" encoding="UTF-8"?><svg id="Camada_2" xmlns="http://www.w3.org/2000/svg" viewBox="0 0 414.01 255.49"><defs><style>.cls-1{fill:#621905;}</style></defs><g id="Camada_2-2"><g><g><path class="cls-1" d="M175.93,7.11c-3.4,2.73-6.42,5.72-9.94,7.89-16,9.9-26.67,8.18-26.19,42.83,.09,6.62-1.95,13.28-4.14,19.5q-3.95,11.18-23.11,23.11c-1.88,1.17-5.66,.26-7.62-1.06-9.87-6.64-13.74-16.74-12.23-27.97,4.33-32.31,21.95-55.28,51.54-68.66,11.09-5.01,22.6-2.94,31.69,4.36Z"/><path class="cls-1" d="M117.22,106.62c5.02-2.93,8.52-4.85,11.89-6.97,12.7-8.02,20.18-9.16,19.07-34.62-.38-24.93,2.52-44.52,33.72-51.78,1.41-.9,5.51,.33,6.94,1.88,8.87,9.59,10.2,21.52,7.68,33.5-5.78,27.48-21.67,47.25-47.67,58.33-9.49,4.04-19.37,4.66-31.63-.34Z"/></g><g><path d="M0,159.74c0-11.94,4.28-22.21,12.84-30.8,8.56-8.59,18.77-12.89,30.65-12.89,5.45,0,10.73,.88,15.84,2.64,5.11,1.76,9.35,4.44,12.74,8.02l-10.25,12.42c-5.11-4.35-11.01-6.52-17.71-6.52-7.66,0-13.81,2.69-18.43,8.08-4.63,5.38-6.94,11.32-6.94,17.81,0,5.04,1.47,9.21,4.4,12.53,2.93,3.31,7.2,4.97,12.79,4.97,7.04,0,14.25-2.93,21.64-8.8l7.04,14.39c-3.52,3.18-8.02,5.8-13.51,7.87-5.49,2.07-10.89,3.11-16.2,3.11-10.7,0-19.19-3.04-25.47-9.11-6.28-6.07-9.42-13.98-9.42-23.71Z"/><path d="M59.54,191.32l38.52-74.03h20.81l10.25,74.03h-18.12l-1.55-15.53h-23.09l-7.45,15.53h-19.36Zm33.86-30.03h14.6l-1.45-14.39-.62-12.74h-.21c-2,5.38-3.76,9.63-5.28,12.74l-7.04,14.39Z"/><path d="M132.43,191.32l14.29-74.03h45.25l-2.9,15.53h-27.23l-3,15.53h22.47l-2.9,15.53h-22.57l-5.38,27.44h-18.02Z"/><path d="M184.09,191.32l14.5-74.03h46.28l-3,15.53h-28.27l-2.59,13.46h22.47l-3.11,15.53h-22.47l-2.69,13.98h29.72l-3,15.53h-47.83Z"/><path d="M239.49,191.32l14.39-74.03h18.12l-14.39,74.03h-18.12Zm16.57-78.79l11.49-15.53h18.33l-15.32,15.53h-14.49Z"/><path d="M269.2,191.32l14.39-74.03h17.6l13.77,34.58c.55,1.45,1.14,3.23,1.76,5.33,.62,2.11,1.1,3.85,1.45,5.23l.52,2.07h.21c.48-5.31,1.04-9.53,1.66-12.63l6.73-34.58h18.12l-14.39,74.03h-17.5l-13.87-34.48c-.55-1.45-1.16-3.23-1.81-5.33-.66-2.1-1.16-3.85-1.5-5.23l-.52-2.07h-.21c-.41,5.32-.93,9.53-1.55,12.63l-6.73,34.48h-18.12Z"/><path d="M334.85,191.32l38.52-74.03h20.81l10.25,74.03h-18.12l-1.55-15.53h-23.09l-7.46,15.53h-19.36Zm33.86-30.03h14.6l-1.45-14.39-.62-12.74h-.21c-2,5.38-3.76,9.63-5.28,12.74l-7.04,14.39Z"/></g><g><path class="cls-1" d="M77.75,232.8l7.21-10.2c1.35,1.23,3.09,2.21,5.23,2.95,2.14,.73,4.26,1.1,6.37,1.1,3.22,0,4.84-.88,4.84-2.64,0-.76-.62-1.46-1.85-2.11-1.23-.64-2.73-1.3-4.48-1.98-1.76-.67-3.52-1.48-5.28-2.42-1.76-.94-3.25-2.36-4.48-4.26-1.23-1.9-1.85-4.18-1.85-6.81,0-4.4,1.83-7.97,5.5-10.73,3.66-2.75,8.22-4.13,13.67-4.13,6.1,0,11.64,1.67,16.62,5.01l-5.98,10.55c-2.76-2.17-6.45-3.25-11.08-3.25-3.11,0-4.66,.85-4.66,2.55,0,.76,.62,1.45,1.85,2.07,1.23,.62,2.73,1.25,4.48,1.89,1.76,.65,3.53,1.45,5.32,2.42,1.79,.97,3.3,2.45,4.53,4.44,1.23,1.99,1.85,4.37,1.85,7.12,0,4.4-1.7,7.93-5.1,10.6-3.4,2.67-7.83,4-13.28,4-7.39,0-13.86-2.05-19.43-6.15Z"/><path class="cls-1" d="M137.27,238.08l-3.34,17.41h-15.12l12.13-62.87h13.72l-.44,2.29-.79,2.9h.18c3.4-4.16,7.94-6.24,13.63-6.24,5.39,0,9.66,1.77,12.79,5.32,3.14,3.55,4.7,8.34,4.7,14.38,0,7.91-2.52,14.51-7.56,19.78-5.04,5.28-10.79,7.91-17.23,7.91-4.98,0-8.94-1.58-11.87-4.75h-.18c-.12,1.06-.32,2.35-.62,3.87Zm3.69-19.7c0,2.34,.59,4.26,1.76,5.76,1.17,1.5,2.93,2.24,5.28,2.24,2.87,0,5.48-1.29,7.83-3.87,2.34-2.58,3.52-5.95,3.52-10.11,0-2.46-.63-4.41-1.89-5.85-1.26-1.44-2.98-2.15-5.14-2.15-2.64,0-5.19,1.3-7.65,3.91-2.46,2.61-3.69,5.97-3.69,10.07Z"/><path class="cls-1" d="M181.15,218.64c0-7.68,2.86-14.11,8.57-19.3,5.72-5.19,12.27-7.78,19.65-7.78,6.86,0,12.48,1.86,16.88,5.58,4.4,3.72,6.6,8.63,6.6,14.73,0,7.74-2.87,14.19-8.62,19.34-5.75,5.16-12.28,7.74-19.61,7.74-6.92,0-12.56-1.85-16.93-5.54-4.37-3.69-6.55-8.62-6.55-14.77Zm15.39-.7c0,2.58,.78,4.62,2.33,6.11,1.55,1.5,3.56,2.24,6.02,2.24,3.22,0,6.13-1.26,8.71-3.78,2.58-2.52,3.87-5.74,3.87-9.67,0-2.64-.78-4.73-2.33-6.29-1.55-1.55-3.53-2.33-5.93-2.33-3.17,0-6.07,1.3-8.71,3.91-2.64,2.61-3.96,5.88-3.96,9.8Z"/><path class="cls-1" d="M237.68,237.9l8.79-45.28h14.6l-1.5,7.65-.7,2.81h.09c1.46-3.17,3.68-5.83,6.64-8,2.96-2.17,5.99-3.25,9.1-3.25,.47,0,1.35,.06,2.64,.18l-2.9,14.95c-1.76-.18-2.76-.26-2.99-.26-1.76,0-3.61,.43-5.54,1.27-1.94,.85-3.91,2.55-5.94,5.1-2.02,2.55-3.38,5.7-4.09,9.45l-2.99,15.39h-15.21Z"/><path class="cls-1" d="M282.26,223.83c0-1,.14-2.17,.44-3.52l2.99-15.04h-5.72l2.29-11.87h6.24l2.55-13.01h14.6l-2.55,13.01h9.58l-2.29,11.87h-9.58l-2.46,12.93c-.18,.82-.26,1.61-.26,2.37,0,2.93,2.23,4.4,6.68,4.4,.82,0,1.61-.03,2.37-.09l-2.55,13.19c-2.46,.18-3.81,.26-4.04,.26-5.39,0-9.79-1.19-13.19-3.56-3.4-2.37-5.1-6.02-5.1-10.95Z"/><path class="cls-1" d="M313.04,232.8l7.21-10.2c1.35,1.23,3.09,2.21,5.23,2.95,2.14,.73,4.26,1.1,6.37,1.1,3.22,0,4.84-.88,4.84-2.64,0-.76-.62-1.46-1.85-2.11-1.23-.64-2.72-1.3-4.48-1.98-1.76-.67-3.52-1.48-5.28-2.42-1.76-.94-3.25-2.36-4.48-4.26-1.23-1.9-1.85-4.18-1.85-6.81,0-4.4,1.83-7.97,5.49-10.73,3.66-2.75,8.22-4.13,13.67-4.13,6.1,0,11.63,1.67,16.62,5.01l-5.98,10.55c-2.76-2.17-6.45-3.25-11.08-3.25-3.11,0-4.66,.85-4.66,2.55,0,.76,.62,1.45,1.85,2.07,1.23,.62,2.73,1.25,4.48,1.89,1.76,.65,3.53,1.45,5.32,2.42,1.79,.97,3.3,2.45,4.53,4.44,1.23,1.99,1.85,4.37,1.85,7.12,0,4.4-1.7,7.93-5.1,10.6-3.4,2.67-7.82,4-13.28,4-7.39,0-13.87-2.05-19.43-6.15Z"/></g><polygon points="262.68 97 175.93 97.5 175.93 96.5 262.68 97"/><polygon class="cls-1" points="414.01 237.9 327.26 238.4 327.26 237.4 414.01 237.9"/><polygon points="92.39 97.5 33.01 97 92.39 96.5 92.39 97.5"/><polygon class="cls-1" points="79.72 234.4 20.34 233.9 79.72 233.4 79.72 234.4"/></g></g></svg>